HIERARCHY
ROOT Hips
{
	OFFSET 0.00000 0.00000 0.00000
	CHANNELS 6 Xposition Yposition Zposition Zrotation Yrotation Xrotation 
	JOINT LHipJoint
	{
		OFFSET 0 0 0
		CHANNELS 3 Zrotation Yrotation Xrotation
		JOINT LeftHip
		{
			OFFSET 1.41261 -1.82971 0.84908
			CHANNELS 3 Zrotation Yrotation Xrotation
			JOINT LeftKnee
			{
				OFFSET 2.52554 -6.93888 0.00000
				CHANNELS 3 Zrotation Yrotation Xrotation
				JOINT LeftAnkle
				{
					OFFSET 2.56654 -7.05152 0.00000
					CHANNELS 3 Zrotation Yrotation Xrotation
					JOINT LeftToe
					{
						OFFSET 0.21698 -0.59616 1.85369
						CHANNELS 3 Zrotation Yrotation Xrotation
						End Site
						{
							OFFSET 0.00000 -0.00000 0.97832
						}
					}
				}
			}
		}
	}
	JOINT RHipJoint
	{
		OFFSET 0 0 0
		CHANNELS 3 Zrotation Yrotation Xrotation
		JOINT RightHip
		{
			OFFSET -1.12808 -1.82971 0.84907
			CHANNELS 3 Zrotation Yrotation Xrotation
			JOINT RightKnee
			{
				OFFSET -2.53425 -6.96280 0.00000
				CHANNELS 3 Zrotation Yrotation Xrotation
				JOINT RightAnkle
				{
					OFFSET -2.58413 -7.09983 0.00000
					CHANNELS 3 Zrotation Yrotation Xrotation
					JOINT RightToe
					{
						OFFSET -0.26437 -0.72636 1.92241
						CHANNELS 3 Zrotation Yrotation Xrotation
						End Site
						{
							OFFSET -0.00000 -0.00000 1.02667
						}
					}
				}
			}
		}
	}
	JOINT lowerback
	{
		OFFSET 0 0 0
		CHANNELS 3 Zrotation Yrotation Xrotation
		JOINT Chest
		{
			OFFSET -0.02096 2.02288 -0.14752
			CHANNELS 3 Zrotation Yrotation Xrotation
			JOINT Chest2
			{
				OFFSET 0.03477 2.03136 -0.02358
				CHANNELS 3 Zrotation Yrotation Xrotation
				JOINT lowerneck
				{
					OFFSET 0 0 0
					CHANNELS 3 Zrotation Yrotation Xrotation
					JOINT Neck
					{
						OFFSET 0.00174 1.74359 0.19336
						CHANNELS 3 Zrotation Yrotation Xrotation
						JOINT Head
						{
							OFFSET -0.03054 1.76140 -0.17751
							CHANNELS 3 Zrotation Yrotation Xrotation
							End Site
							{
								OFFSET -0.00863 1.77239 -0.08120
							}
						}
					}
				}
				JOINT LeftCollar
				{
					OFFSET 0 0 0
					CHANNELS 3 Zrotation Yrotation Xrotation
					JOINT LeftShoulder
					{
						OFFSET 3.68685 1.32687 -0.67367
CHANNELS 3 Zrotation Xrotation Yrotation
						JOINT LeftElbow
						{
OFFSET 0 -4.764680 -0.000000
CHANNELS 3 Zrotation Xrotation Yrotation
							JOINT LeftWrist
							{
OFFSET 0 -3.527120 -0.000000
CHANNELS 3 Zrotation Xrotation Yrotation
								JOINT lhand
								{
									OFFSET 0 0 0
CHANNELS 3 Zrotation Xrotation Yrotation
									JOINT LFingers
									{
OFFSET 0 -0.859560 -0.000000
CHANNELS 3 Zrotation Xrotation Yrotation
										End Site
										{
OFFSET 0 -0.693000 -0.000000
										}
									}
								}
								JOINT LThumb
								{
OFFSET 0 0.000000 0.000000
CHANNELS 3 Zrotation Xrotation Yrotation
									End Site
									{
OFFSET 0 -0.703580 0.703580
									}
								}
							}
						}
					}
				}
				JOINT RightCollar
				{
					OFFSET 0 0 0
					CHANNELS 3 Zrotation Yrotation Xrotation
					JOINT RightShoulder
					{
						OFFSET -3.31304 1.28268 -0.97357
CHANNELS 3 Zrotation Xrotation Yrotation
						JOINT RightElbow
						{
OFFSET 0 -4.905770 -0.000000
CHANNELS 3 Zrotation Xrotation Yrotation
							JOINT RightWrist
							{
OFFSET 0 -3.426920 0.000000
CHANNELS 3 Zrotation Xrotation Yrotation
								JOINT rhand
								{
									OFFSET 0 0 0
CHANNELS 3 Zrotation Xrotation Yrotation
									JOINT RFingers
									{
OFFSET 0 -0.740960 -0.000000
CHANNELS 3 Zrotation Xrotation Yrotation
										End Site
										{
OFFSET 0 -0.597380 -0.000000
										}
									}
								}
								JOINT RThumb
								{
OFFSET 0 0.000000 0.000000
CHANNELS 3 Zrotation Xrotation Yrotation
									End Site
									{
OFFSET 0 -0.606500 0.606500
									}
								}
							}
						}
					}
				}
			}
		}
	}
}
MOTION
Frames: 6
Frame Time: 0.008333333333333333
1.961400 17.775800 6.190300 -1.337300 -0.666800 0.916500 0.000000 0.000000 0.000000 -18.532200 2.859500 4.127800 0.318800 3.629200 10.035700 0.845600 -2.332600 -16.743300 2.043200 -8.955400 -25.655900 0.000000 0.000000 0.000000 18.822400 1.927600 -0.831100 -1.051800 -6.521500 18.305400 -0.685600 -6.985500 -19.711300 -0.711200 -5.389700 15.023400 -2.842200 -0.440500 4.352600 1.906000 -0.684700 -1.243500 3.620200 -0.254100 -3.671000 -2.964300 -1.705100 -12.152900 -0.947400 -1.540800 19.899500 0.015200 -1.049800 8.194700 0.000000 0.000000 0.000000 -6.637200 6.061000 -1.058700 19.136900 -29.588500 5.098300 6.441800 3.767300 13.265300 0.000000 0.000000 0.000000 -7.125000 0.000000 0.000000 -14.333200 16.882200 -9.869100 0.000000 0.000000 0.000000 0.476500 -2.987600 5.829900 -9.666500 -16.216200 -1.380400 -9.130200 18.282200 36.152900 0.000000 0.000000 0.000000 7.125000 0.000000 -0.000000 30.709900 63.903800 -14.748600
1.961652 17.776607 6.184905 -1.380457 -0.625861 0.912920 0.000000 0.000000 0.000000 -18.480119 2.844324 4.041990 0.326564 3.672458 10.156954 0.848827 -2.380597 -16.766694 2.033268 -8.934931 -25.591920 0.000000 0.000000 0.000000 18.869339 1.897753 -0.836444 -1.047918 -6.509753 18.270915 -0.680256 -7.005264 -19.672327 -0.719418 -5.419950 15.110320 -2.734912 -0.392856 4.394043 1.887396 -0.616334 -1.216930 3.535448 -0.222992 -3.673470 -2.710902 -1.635574 -12.082265 -1.159052 -1.454133 19.931818 -0.087651 -1.010827 8.187793 0.000000 0.000000 0.000000 -6.612748 5.995256 -1.312753 19.176074 -29.636901 5.117660 6.427280 3.743755 13.272106 0.000000 0.000000 0.000000 -7.125000 0.000000 0.000000 -14.342628 16.876251 -9.877973 0.000000 0.000000 0.000000 0.526716 -3.030455 5.745703 -9.703960 -16.275138 -1.390887 -9.059515 18.254975 36.288170 0.000000 0.000000 0.000000 7.125000 0.000000 0.000000 30.944643 63.997980 -14.940287
1.961899 17.777399 6.179510 -1.423215 -0.584819 0.909049 0.000000 0.000000 0.000000 -18.428442 2.829285 3.956712 0.334301 3.715553 10.277750 0.852028 -2.428641 -16.789829 2.023478 -8.914756 -25.528864 0.000000 0.000000 0.000000 18.915871 1.867641 -0.841726 -1.044085 -6.498154 18.236865 -0.674932 -7.025184 -19.633694 -0.727344 -5.449123 15.194144 -2.628356 -0.345607 4.435509 1.868955 -0.548532 -1.190204 3.451320 -0.192154 -3.675735 -2.455677 -1.565561 -12.011322 -1.372828 -1.366697 19.964786 -0.191438 -0.971568 8.181033 0.000000 0.000000 0.000000 -6.588734 5.929207 -1.565969 19.214773 -29.684713 5.136786 6.413802 3.719748 13.278857 0.000000 0.000000 0.000000 -7.125000 0.000000 0.000000 -14.351355 16.870307 -9.886329 0.000000 0.000000 0.000000 0.576435 -3.073344 5.661879 -9.741345 -16.333956 -1.401354 -8.987288 18.227414 36.422351 0.000000 0.000000 0.000000 7.125000 0.000000 0.000000 31.179715 64.090824 -15.131212
1.961849 17.777349 6.174065 -1.442222 -0.537628 0.887874 0.000000 0.000000 0.000000 -18.400763 2.822327 3.903068 0.340402 3.748929 10.371375 0.853743 -2.479462 -16.797644 2.022167 -8.912084 -25.520646 0.000000 0.000000 0.000000 18.938307 1.821812 -0.843289 -1.043177 -6.495381 18.228697 -0.670797 -7.054426 -19.615242 -0.717916 -5.414285 15.094116 -2.565284 -0.321860 4.478313 1.860182 -0.514249 -1.154206 3.404179 -0.177281 -3.665752 -2.091865 -1.466541 -11.922033 -1.712742 -1.233646 20.036429 -0.350757 -0.915303 8.182999 0.000000 0.000000 0.000000 -6.590801 5.845060 -1.769453 19.225209 -29.697569 5.141979 6.462253 3.668272 13.282285 0.000000 0.000000 0.000000 -7.125000 0.000000 0.000000 -14.318432 16.864711 -9.863944 0.000000 0.000000 0.000000 0.596652 -3.118266 5.600219 -9.774268 -16.385685 -1.410630 -8.823482 18.179921 36.491877 0.000000 0.000000 0.000000 7.125000 0.000000 0.000000 31.434323 64.104336 -15.276919
1.961768 17.777285 6.168591 -1.459912 -0.490755 0.866539 0.000000 0.000000 0.000000 -18.374477 2.815229 3.849667 0.346494 3.782237 10.464810 0.855348 -2.529350 -16.804529 2.022095 -8.911949 -25.520354 0.000000 0.000000 0.000000 18.959571 1.776582 -0.844608 -1.042277 -6.492630 18.220595 -0.666600 -7.084501 -19.596779 -0.708035 -5.377710 14.989116 -2.504579 -0.298611 4.521244 1.851453 -0.480771 -1.117993 3.358481 -0.162761 -3.655537 -1.731983 -1.368292 -11.833456 -2.050801 -1.101169 20.108768 -0.508892 -0.859423 8.185428 0.000000 0.000000 0.000000 -6.593431 5.760655 -1.970305 19.235407 -29.710132 5.147052 6.509618 3.617690 13.286817 0.000000 0.000000 0.000000 -7.125000 0.000000 0.000000 -14.286181 16.858093 -9.842380 0.000000 0.000000 0.000000 0.616379 -3.163555 5.542164 -9.807265 -16.437528 -1.419931 -8.662157 18.129806 36.562207 0.000000 0.000000 0.000000 7.125000 0.000000 0.000000 31.687353 64.119176 -15.422792
1.960810 17.776831 6.162289 -1.439140 -0.453143 0.840523 0.000000 0.000000 0.000000 -18.388897 2.804037 3.803384 0.352342 3.813546 10.552687 0.853785 -2.551987 -16.784261 2.058194 -8.985911 -25.751518 0.000000 0.000000 0.000000 18.946614 1.748852 -0.838810 -1.041571 -6.490512 18.214393 -0.660550 -7.138902 -19.578024 -0.684944 -5.290438 14.738945 -2.512998 -0.289889 4.567880 1.843991 -0.470839 -1.075491 3.354902 -0.158577 -3.638547 -1.486854 -1.292566 -11.765695 -2.334701 -0.985461 20.201436 -0.632465 -0.814803 8.201359 0.000000 0.000000 0.000000 -6.612489 5.668694 -2.094281 19.238634 -29.714115 5.148615 6.525247 3.593238 13.323571 0.000000 0.000000 0.000000 -7.125000 0.000000 0.000000 -14.273526 16.821641 -9.844800 0.000000 0.000000 0.000000 0.621773 -3.219568 5.589405 -9.842457 -16.492735 -1.429913 -8.573271 18.003158 36.656034 0.000000 0.000000 0.000000 7.125000 0.000000 0.000000 31.894316 64.172820 -15.573540
